<svg version="1.0" xmlns="http://www.w3.org/2000/svg"
 width="105.000000pt" height="87.000000pt" viewBox="0 0 105.000000 87.000000"
 preserveAspectRatio="xMidYMid meet">

<g transform="translate(0.000000,87.000000) scale(0.100000,-0.100000)"
fill="#000000" stroke="none">
<path d="M283 823 c-29 -6 -29 -14 2 -43 14 -13 25 -26 25 -30 0 -11 -65 -31
-110 -33 -25 -1 -56 -10 -69 -19 l-24 -17 38 -16 c26 -10 42 -12 49 -5 17 17
27 11 16 -9 -15 -30 -12 -49 15 -89 14 -20 25 -46 25 -58 0 -30 20 -44 79 -53
57 -9 79 -21 39 -21 -21 0 -25 -4 -21 -19 4 -16 15 -21 51 -23 l46 -3 39 -157
39 -158 157 0 c133 0 162 3 191 19 79 41 100 129 60 246 -11 32 -20 69 -20 81
0 22 4 24 46 21 35 -1 49 2 58 16 16 26 -32 67 -80 67 -46 0 -70 -14 -89 -50
-20 -39 -19 -69 6 -142 30 -85 30 -135 0 -159 -13 -10 -32 -19 -42 -19 -16 0
-17 4 -9 26 37 97 -25 256 -120 304 -34 17 -130 108 -138 130 -2 4 11 11 27
15 17 4 31 10 31 15 0 5 -14 4 -32 -1 -44 -12 -49 -2 -13 28 27 23 23 24 -19
7 -8 -3 -18 6 -26 25 -17 43 -91 108 -136 120 -40 11 -52 12 -91 4z m103 -39
c50 -24 51 -34 2 -34 -34 1 -47 6 -61 25 -18 24 -17 25 4 25 11 0 36 -7 55
-16z m266 -476 c-25 -12 -49 -33 -58 -50 -20 -38 -31 -28 -14 12 14 34 52 59
90 59 21 0 18 -3 -18 -21z"/>
<path d="M122 404 c-35 -53 -61 -102 -58 -109 2 -7 39 -61 81 -119 l76 -106
131 0 c119 0 130 1 126 17 -3 10 -20 74 -38 142 l-33 124 -101 -6 c-56 -3
-123 -13 -151 -21 l-50 -15 30 25 c17 13 50 32 75 41 25 9 48 19 52 22 3 3
-12 27 -35 53 l-42 47 -63 -95z"/>
</g>
</svg>
